<mxfile host="Electron" agent="Mozilla/5.0 (X11; Linux x86_64) AppleWebKit/537.36 (KHTML, like Gecko) draw.io/24.7.5 Chrome/126.0.6478.183 Electron/31.3.0 Safari/537.36" version="24.7.5">
  <diagram name="Page-1" id="Q1cEF6Kj3soC3qMXD4UZ">
    <mxGraphModel dx="2074" dy="1222" grid="1" gridSize="10" guides="1" tooltips="1" connect="1" arrows="1" fold="1" page="1" pageScale="1" pageWidth="827" pageHeight="1169" background="none" math="0" shadow="0">
      <root>
        <mxCell id="rkX6qjQ8AkB5AudOEc9u-0" />
        <mxCell id="rkX6qjQ8AkB5AudOEc9u-1" parent="rkX6qjQ8AkB5AudOEc9u-0" />
        <mxCell id="D5Gje-q6vAXWkUeuMq_i-0" value="" style="shape=umlLifeline;perimeter=lifelinePerimeter;whiteSpace=wrap;html=1;container=1;dropTarget=0;collapsible=0;recursiveResize=0;outlineConnect=0;portConstraint=eastwest;newEdgeStyle={&quot;curved&quot;:0,&quot;rounded&quot;:0};participant=umlActor;" parent="rkX6qjQ8AkB5AudOEc9u-1" vertex="1">
          <mxGeometry x="40" y="90" width="20" height="310" as="geometry" />
        </mxCell>
        <mxCell id="D5Gje-q6vAXWkUeuMq_i-1" value="workflows frontend" style="shape=umlLifeline;perimeter=lifelinePerimeter;whiteSpace=wrap;html=1;container=1;dropTarget=0;collapsible=0;recursiveResize=0;outlineConnect=0;portConstraint=eastwest;newEdgeStyle={&quot;curved&quot;:0,&quot;rounded&quot;:0};" parent="rkX6qjQ8AkB5AudOEc9u-1" vertex="1">
          <mxGeometry x="160" y="90" width="100" height="310" as="geometry" />
        </mxCell>
        <mxCell id="D5Gje-q6vAXWkUeuMq_i-5" value="" style="html=1;points=[[0,0,0,0,5],[0,1,0,0,-5],[1,0,0,0,5],[1,1,0,0,-5]];perimeter=orthogonalPerimeter;outlineConnect=0;targetShapes=umlLifeline;portConstraint=eastwest;newEdgeStyle={&quot;curved&quot;:0,&quot;rounded&quot;:0};" parent="D5Gje-q6vAXWkUeuMq_i-1" vertex="1">
          <mxGeometry x="45" y="70" width="10" height="210" as="geometry" />
        </mxCell>
        <mxCell id="D5Gje-q6vAXWkUeuMq_i-10" value="catalogue" style="shape=umlLifeline;perimeter=lifelinePerimeter;whiteSpace=wrap;html=1;container=1;dropTarget=0;collapsible=0;recursiveResize=0;outlineConnect=0;portConstraint=eastwest;newEdgeStyle={&quot;curved&quot;:0,&quot;rounded&quot;:0};" parent="rkX6qjQ8AkB5AudOEc9u-1" vertex="1">
          <mxGeometry x="360" y="90" width="100" height="310" as="geometry" />
        </mxCell>
        <mxCell id="D5Gje-q6vAXWkUeuMq_i-13" value="workflows backend" style="shape=umlLifeline;perimeter=lifelinePerimeter;whiteSpace=wrap;html=1;container=1;dropTarget=0;collapsible=0;recursiveResize=0;outlineConnect=0;portConstraint=eastwest;newEdgeStyle={&quot;curved&quot;:0,&quot;rounded&quot;:0};" parent="rkX6qjQ8AkB5AudOEc9u-1" vertex="1">
          <mxGeometry x="480" y="90" width="100" height="310" as="geometry" />
        </mxCell>
        <mxCell id="D5Gje-q6vAXWkUeuMq_i-14" value="" style="html=1;points=[[0,0,0,0,5],[0,1,0,0,-5],[1,0,0,0,5],[1,1,0,0,-5]];perimeter=orthogonalPerimeter;outlineConnect=0;targetShapes=umlLifeline;portConstraint=eastwest;newEdgeStyle={&quot;curved&quot;:0,&quot;rounded&quot;:0};" parent="D5Gje-q6vAXWkUeuMq_i-13" vertex="1">
          <mxGeometry x="45" y="80" width="10" height="170" as="geometry" />
        </mxCell>
        <mxCell id="D5Gje-q6vAXWkUeuMq_i-15" value="" style="html=1;points=[[0,0,0,0,5],[0,1,0,0,-5],[1,0,0,0,5],[1,1,0,0,-5]];perimeter=orthogonalPerimeter;outlineConnect=0;targetShapes=umlLifeline;portConstraint=eastwest;newEdgeStyle={&quot;curved&quot;:0,&quot;rounded&quot;:0};" parent="D5Gje-q6vAXWkUeuMq_i-13" vertex="1">
          <mxGeometry x="50" y="180" width="10" height="40" as="geometry" />
        </mxCell>
        <mxCell id="D5Gje-q6vAXWkUeuMq_i-16" value="get wf engine URL&lt;div&gt;from configuration&lt;/div&gt;" style="html=1;align=left;spacingLeft=2;endArrow=block;rounded=0;edgeStyle=orthogonalEdgeStyle;curved=0;rounded=0;" parent="D5Gje-q6vAXWkUeuMq_i-13" source="D5Gje-q6vAXWkUeuMq_i-14" target="D5Gje-q6vAXWkUeuMq_i-15" edge="1">
          <mxGeometry relative="1" as="geometry">
            <mxPoint x="55" y="460" as="sourcePoint" />
            <Array as="points">
              <mxPoint x="85" y="170" />
              <mxPoint x="85" y="200" />
            </Array>
          </mxGeometry>
        </mxCell>
        <mxCell id="D5Gje-q6vAXWkUeuMq_i-17" value="" style="html=1;points=[[0,0,0,0,5],[0,1,0,0,-5],[1,0,0,0,5],[1,1,0,0,-5]];perimeter=orthogonalPerimeter;outlineConnect=0;targetShapes=umlLifeline;portConstraint=eastwest;newEdgeStyle={&quot;curved&quot;:0,&quot;rounded&quot;:0};" parent="D5Gje-q6vAXWkUeuMq_i-13" vertex="1">
          <mxGeometry x="50" y="110" width="10" height="40" as="geometry" />
        </mxCell>
        <mxCell id="D5Gje-q6vAXWkUeuMq_i-18" value="naavrewf2 to argoyaml" style="html=1;align=left;spacingLeft=2;endArrow=block;rounded=0;edgeStyle=orthogonalEdgeStyle;curved=0;rounded=0;" parent="D5Gje-q6vAXWkUeuMq_i-13" source="D5Gje-q6vAXWkUeuMq_i-14" target="D5Gje-q6vAXWkUeuMq_i-17" edge="1">
          <mxGeometry relative="1" as="geometry">
            <mxPoint x="55" y="390" as="sourcePoint" />
            <Array as="points">
              <mxPoint x="85" y="100" />
              <mxPoint x="85" y="130" />
            </Array>
          </mxGeometry>
        </mxCell>
        <mxCell id="D5Gje-q6vAXWkUeuMq_i-26" value="config:&amp;nbsp;&lt;span style=&quot;background-color: initial;&quot;&gt;list&lt;/span&gt;&lt;div&gt;&lt;span style=&quot;background-color: initial;&quot;&gt;of wf engines&lt;/span&gt;&lt;/div&gt;&lt;div&gt;&lt;span style=&quot;background-color: initial;&quot;&gt;for each VL&lt;/span&gt;&lt;/div&gt;" style="shape=note;whiteSpace=wrap;html=1;backgroundOutline=1;darkOpacity=0.05;align=left;fillColor=#fff2cc;strokeColor=#d6b656;" parent="rkX6qjQ8AkB5AudOEc9u-1" vertex="1">
          <mxGeometry x="560" y="110" width="110" height="50" as="geometry" />
        </mxCell>
        <mxCell id="D5Gje-q6vAXWkUeuMq_i-27" value="POST /convert/" style="html=1;verticalAlign=bottom;endArrow=block;curved=0;rounded=0;entryX=0;entryY=0;entryDx=0;entryDy=5;align=center;startFill=1;anchorPointDirection=1;" parent="rkX6qjQ8AkB5AudOEc9u-1" source="D5Gje-q6vAXWkUeuMq_i-5" target="D5Gje-q6vAXWkUeuMq_i-14" edge="1">
          <mxGeometry relative="1" as="geometry">
            <mxPoint x="610" y="565" as="sourcePoint" />
          </mxGeometry>
        </mxCell>
        <mxCell id="D5Gje-q6vAXWkUeuMq_i-28" value="&lt;div style=&quot;text-align: left;&quot;&gt;{ virtual_lab: &amp;lt;slug&amp;gt;,&amp;nbsp;&lt;/div&gt;&lt;div style=&quot;text-align: left;&quot;&gt;&amp;nbsp; naavrewf2: {â€¦} }&lt;/div&gt;" style="edgeLabel;html=1;align=center;verticalAlign=top;resizable=0;points=[];rotation=0;labelBackgroundColor=#FFF2CC;fontFamily=Lucida Console;" parent="D5Gje-q6vAXWkUeuMq_i-27" vertex="1" connectable="0">
          <mxGeometry relative="1" as="geometry">
            <mxPoint as="offset" />
          </mxGeometry>
        </mxCell>
        <mxCell id="D5Gje-q6vAXWkUeuMq_i-29" value="return" style="html=1;verticalAlign=bottom;endArrow=open;dashed=1;endSize=8;curved=0;rounded=0;exitX=0;exitY=1;exitDx=0;exitDy=-5;" parent="rkX6qjQ8AkB5AudOEc9u-1" source="D5Gje-q6vAXWkUeuMq_i-14" target="D5Gje-q6vAXWkUeuMq_i-5" edge="1">
          <mxGeometry relative="1" as="geometry">
            <mxPoint x="610" y="635" as="targetPoint" />
          </mxGeometry>
        </mxCell>
        <mxCell id="D5Gje-q6vAXWkUeuMq_i-30" value="&amp;lt;argowfyaml&amp;gt; (MIME text/yaml)" style="edgeLabel;html=1;align=center;verticalAlign=top;resizable=0;points=[];rotation=0;labelBackgroundColor=#FFF2CC;fontFamily=Lucida Console;" parent="D5Gje-q6vAXWkUeuMq_i-29" vertex="1" connectable="0">
          <mxGeometry relative="1" as="geometry">
            <mxPoint as="offset" />
          </mxGeometry>
        </mxCell>
        <mxCell id="D5Gje-q6vAXWkUeuMq_i-38" value="return" style="html=1;verticalAlign=bottom;endArrow=open;dashed=1;endSize=8;curved=0;rounded=0;exitX=0;exitY=1;exitDx=0;exitDy=-5;" parent="rkX6qjQ8AkB5AudOEc9u-1" source="D5Gje-q6vAXWkUeuMq_i-5" target="D5Gje-q6vAXWkUeuMq_i-0" edge="1">
          <mxGeometry relative="1" as="geometry">
            <mxPoint x="49.666666666666515" y="874.9999999999991" as="targetPoint" />
          </mxGeometry>
        </mxCell>
        <mxCell id="D5Gje-q6vAXWkUeuMq_i-39" value="Workflow export" style="text;strokeColor=none;align=center;fillColor=none;html=1;verticalAlign=middle;whiteSpace=wrap;rounded=0;fontSize=18;" parent="rkX6qjQ8AkB5AudOEc9u-1" vertex="1">
          <mxGeometry x="50" y="30" width="740" height="30" as="geometry" />
        </mxCell>
        <mxCell id="D5Gje-q6vAXWkUeuMq_i-7" value="click export workflow" style="html=1;verticalAlign=bottom;endArrow=block;curved=0;rounded=0;entryX=0;entryY=0;entryDx=0;entryDy=5;" parent="rkX6qjQ8AkB5AudOEc9u-1" source="D5Gje-q6vAXWkUeuMq_i-0" target="D5Gje-q6vAXWkUeuMq_i-5" edge="1">
          <mxGeometry relative="1" as="geometry">
            <mxPoint x="49.666666666666515" y="465.0000000000007" as="sourcePoint" />
          </mxGeometry>
        </mxCell>
      </root>
    </mxGraphModel>
  </diagram>
</mxfile>
